<?xml version="1.0" encoding="utf-8"?>
<!-- Generator: Adobe Illustrator 26.2.1, SVG Export Plug-In . SVG Version: 6.00 Build 0)  -->
<svg version="1.1" id="Layer_1" xmlns="http://www.w3.org/2000/svg" xmlns:xlink="http://www.w3.org/1999/xlink" x="0px" y="0px"
	 viewBox="0 0 474 95" style="enable-background:new 0 0 474 95;" xml:space="preserve">
<style type="text/css">
	.st0{fill:none;stroke:#DD765B;stroke-width:9;stroke-linecap:round;stroke-miterlimit:10;}
	.st1{fill:#365A80;}
	.st2{fill:#DD765B;}
	.st3{display:none;fill:none;}
</style>
<g>
	<line class="st0" x1="65.8" y1="30.1" x2="65.8" y2="75.1"/>
	<line class="st0" x1="134.8" y1="30.1" x2="134.8" y2="75.1"/>
	<line class="st0" x1="148.8" y1="41.6" x2="148.8" y2="63.1"/>
	<line class="st0" x1="52.8" y1="41.6" x2="52.8" y2="63.1"/>
	<line class="st0" x1="65.8" y1="52.6" x2="134.8" y2="52.6"/>
	<g>
		<path class="st1" d="M169.9,28.2h13c13.6,0,22.6,7.1,22.6,23.2c0,16.1-8.9,23.7-22,23.7h-13.6L169.9,28.2L169.9,28.2z M182.2,66.6
			c7.3,0,12.3-3.9,12.3-15.1c0-11.2-5-14.7-12.3-14.7h-1.8v29.8L182.2,66.6L182.2,66.6z"/>
		<path class="st1" d="M212.3,68.2l6.1-6.6c2.7,3.4,5.9,5.1,9,5.1c4.8,0,7.2-2.1,7.2-8.5V37.1h-18.3v-8.9h29v31
			c0,9.2-4.5,16.8-17.5,16.8C222.5,76,216.4,73.9,212.3,68.2z"/>
		<path class="st2" d="M264.4,67.5c0-4.7,3.4-8.5,8.4-8.5s8.4,3.8,8.4,8.5c0,4.8-3.4,8.5-8.4,8.5C267.9,76,264.4,72.3,264.4,67.5z"
			/>
		<path class="st1" d="M298.5,28.2h11.1l4.6,16.6l1.6,6.5h0.3l1.6-6.5l4.6-16.6h11.1v46.9h-9V60.6c0-5.3,0.9-16.7,1.4-21.8h-0.2
			l-3.6,12.6l-3.6,11.3h-5.1l-3.7-11.3l-3.4-12.6H306c0.5,5.1,1.4,16.5,1.4,21.8v14.5h-8.8L298.5,28.2L298.5,28.2z"/>
		<path class="st1" d="M343,28.2h16.6c10.2,0,18.4,3.7,18.4,15.1c0,11.1-8.4,15.9-18.4,15.9h-6v15.9H343V28.2z M359,50.8
			c5.8,0,8.6-2.6,8.6-7.5c0-4.9-3-6.7-8.6-6.7h-5.4v14.1L359,50.8L359,50.8z"/>
		<path class="st1" d="M386.2,28.2h16.6c10.2,0,18.4,3.7,18.4,15.1c0,11.1-8.4,15.9-18.4,15.9h-6v15.9h-10.6V28.2z M402.2,50.8
			c5.8,0,8.6-2.6,8.6-7.5c0-4.9-3-6.7-8.6-6.7h-5.4v14.1L402.2,50.8L402.2,50.8z"/>
	</g>
</g>
<rect x="0.5" y="-177.4" class="st3" width="473" height="481"/>
</svg>
